<svg width="32" height="32" viewBox="0 0 32 32" fill="none" xmlns="http://www.w3.org/2000/svg">
<path d="M20 16C20 19.3137 18.2091 22 16 22C13.7909 22 12 19.3137 12 16C12 12.6863 13.7909 10 16 10C18.2091 10 20 12.6863 20 16Z" fill="#0066FF"/>
<path fill-rule="evenodd" clip-rule="evenodd" d="M8 0C3.58172 0 0 3.58172 0 8V24C0 28.4183 3.58172 32 8 32H24C28.4183 32 32 28.4183 32 24V8C32 3.58172 28.4183 0 24 0H8ZM16 26C21.5228 26 26 21.5228 26 16C26 10.4772 21.5228 6 16 6C10.4772 6 6 10.4772 6 16C6 21.5228 10.4772 26 16 26ZM20 16C20 19.3137 18.2091 22 16 22C13.7909 22 12 19.3137 12 16C12 12.6863 13.7909 10 16 10C18.2091 10 20 12.6863 20 16Z" fill="#0066FF"/>
</svg>
